<svg xmlns="http://www.w3.org/2000/svg" width="1706.667" height="1706.667" version="1.0" viewBox="0 0 1280 1280"><path d="M609.5.6C464.2 8.3 330.7 61.9 221 156.4c-13.8 11.9-44.7 42.3-57 56.1-51.7 57.9-91.5 122.1-119.4 192.8C22.2 462 8.5 519.8 2.3 584.5c-2.4 25.2-2.4 85.8 0 111 10.8 112 45.6 210.3 106.8 301.6 35.5 53.1 83.6 104.9 134.4 145 98.9 78 212.5 123.2 341 135.6 25.2 2.4 85.8 2.4 111 0 111.3-10.7 210.3-45.6 300.4-105.9 33.8-22.7 61.4-45.2 91.9-75.3 26.4-25.9 42.1-43.7 63.2-71.7 72.8-96.4 114.8-205.7 126.7-329.3 2.4-25.2 2.4-85.8 0-111-13.7-142.2-67.9-266.9-161.7-372-12.3-13.8-43.2-44.2-57-56.1C955.9 67.5 832.5 15.1 696.5 2.5 680.3 1 624.9-.2 609.5.6zM662 239.1c61.5 6.1 115.6 30.2 153.5 68.3 24.6 24.7 42.8 57.3 51.4 92.1 4.4 17.8 5.6 29.7 5.6 57.5 0 34.6-3.1 56.7-11.1 80.6-13.8 41.2-41.3 72.5-83.5 94.8-21.8 11.5-42.3 18.5-77.1 26.1l-21.6 4.8-.4 31.1c-.5 33.7-.8 35.7-6.8 47.6-5.1 10.1-15.5 18.7-28.1 23.1-9.4 3.4-28.5 3.4-38.4.1-17-5.7-27.1-16.7-32.2-35.2-1.6-5.9-1.8-11.7-1.8-62.5 0-50.1.2-56.6 1.7-61.5 3.7-11.9 10.5-14.8 54.8-23.9 31-6.4 46.7-11.8 63.3-21.7 33.1-19.9 51.6-50 54.6-88.8 2.6-34.2-7.4-60.2-32.8-85.7-11.2-11.2-17.9-16.1-30.1-22-16.8-8.1-31.8-11.3-54.5-11.3-30.9-.1-52.9 5.7-73.5 19.2-11.2 7.4-29.6 25.8-44.7 44.7-13.8 17.2-28.4 31.8-34.7 34.6-5.8 2.5-20.2 3.9-28.6 2.8-9.4-1.3-16.4-5.1-24.6-13.3-12.3-12.3-16.2-23.8-15.1-44.9 1.7-31.1 11.8-54.9 34.1-80 24.6-27.5 59-49.4 99.6-63.1 40.6-13.7 77.7-17.8 121-13.5zm-25.5 698c6.7 1.3 17.8 6.9 24.6 12.3 6.8 5.5 12.4 12.6 17.8 22.6 18.4 34.2.4 77-37.9 90.1-9.9 3.4-25.8 3.2-36.1-.3-10.9-3.8-19.4-9.1-27.5-17.2-12.7-12.7-18.1-27.8-17.1-47.5.8-17.6 6.6-29.9 19.8-42.6 17-16.2 34.5-21.6 56.4-17.4z"/></svg>